<svg width="56" height="56" xmlns="http://www.w3.org/2000/svg"><g id="full-screen-menu-open" stroke="none" stroke-width="1" fill="none" fill-rule="evenodd" transform="translate(-961 -731)"><g id="Follow-us" transform="translate(961 680)"><g id="social-icons" transform="translate(0 51)"><g id="facebook"><circle id="Oval-2" fill="#FFF" cx="28" cy="28" r="28"/><path d="M31.807 20.609c.628 0 1.48.106 2.172.243.16.03.337 0 .482-.091a.552.552 0 00.257-.395l.435-2.963a.594.594 0 00-.45-.638 13.929 13.929 0 00-3.62-.456c-3.843 0-5.709 1.732-5.709 5.318v1.565h-1.962c-.338 0-.611.258-.611.577v3.039c0 .334.273.593.61.593h1.963V39.07c0 .319.273.577.611.577h4.021a.59.59 0 00.595-.577V27.4h3.249a.613.613 0 00.611-.546l.225-3.04a.59.59 0 00-.595-.623h-3.49v-1.336c0-1.003.113-1.246 1.206-1.246z" id="facebook-ico" fill="#002A5B"/></g></g></g></g></svg>